<svg width="40" height="40" viewBox="0 0 40 40" fill="none" xmlns="http://www.w3.org/2000/svg">
<rect width="40" height="40" rx="10" fill="url(#paint0_linear_22074_4827)"/>
<path d="M25.6254 14.5434H27.5613C27.7806 14.5434 27.9815 14.3607 27.9815 14.1232C27.9815 14.0136 27.9449 13.9406 27.8718 13.8127L25.1322 11.1096C25.0591 11.0365 24.986 11 24.8582 11C24.6389 11 24.4381 11.1827 24.4381 11.4201V13.3561C24.4564 14.0138 24.986 14.5434 25.6254 14.5434Z" fill="white"/>
<path d="M13.79 23.9679V14.5434C12.8037 14.5434 12 15.3471 12 16.2968V27.4931C12 28.4793 12.8037 29.283 13.79 29.283H22.6481C23.6344 29.283 24.4381 28.4793 24.4381 27.5296H17.3149C15.3971 27.5114 13.7899 27.5114 13.7899 23.968L13.79 23.9679Z" fill="white"/>
<path d="M27.3791 16.2968H24.4202C23.434 16.2968 22.6303 15.4931 22.6303 14.5433V11.5662C22.6668 11.2557 22.3928 11.0001 22.0641 11.0001H17.3335C16.3472 11.0001 15.5435 11.8038 15.5435 12.7535V23.9498C15.5435 24.9361 16.3472 25.7032 17.3335 25.7032L26.21 25.7031C27.1963 25.7031 28 24.8994 28 23.9497L27.9998 16.8997C27.9998 16.5528 27.7259 16.297 27.379 16.297L27.3791 16.2968Z" fill="white"/>
<defs>
<linearGradient id="paint0_linear_22074_4827" x1="0" y1="40" x2="48.1495" y2="17.2419" gradientUnits="userSpaceOnUse">
<stop stop-color="#67239C"/>
<stop offset="1" stop-color="#B352FF"/>
</linearGradient>
</defs>
</svg>
